<?xml version="1.0" encoding="utf-8"?>
<!-- Generator: Adobe Illustrator 23.0.1, SVG Export Plug-In . SVG Version: 6.00 Build 0)  -->
<svg version="1.1" id="Layer_1" xmlns="http://www.w3.org/2000/svg" xmlns:xlink="http://www.w3.org/1999/xlink" x="0px" y="0px"
	 viewBox="0 0 250 250" style="enable-background:new 0 0 250 250;" xml:space="preserve">
<style type="text/css">
	.st0{display:none;}
	.st1{fill:#333333;}
	.st2{fill:#FFFFFF;}
	.st3{fill:none;stroke:#000000;stroke-miterlimit:10;}
</style>
<g class="st0">
	
		<image style="display:inline;overflow:visible;" width="215" height="269" xlink:href="A33F1C98.png"  transform="matrix(1.3981 0 0 1.4005 -3.5201 -261)">
	</image>
</g>
<g>
	<path class="st1" d="M125.4,188.9c-18.1,0-36.2-0.1-54.4,0c-4.8,0-8.9-3.3-9.5-7.9c-0.1-0.5-0.1-1-0.1-1.4c0-36.5,0-73,0-109.6
		c0-5.3,3.9-9.3,9.2-9.3c5.8,0,11.6,0,17.4,0c30.7,0,61.4,0,92,0c5,0,8.3,3.4,9.2,6.5c0.2,0.9,0.4,1.8,0.4,2.7
		c0,36.6,0,73.1,0,109.7c0,5.2-3.9,9.2-9.2,9.2c-6.8,0-13.7,0-20.5,0C148.4,188.9,136.9,188.9,125.4,188.9z M129.7,116.5
		c0-2.1,0-4.3,0-6.5c0-1-0.3-1.4-1.3-1.4c-5.3,0.1-10.6,0.1-15.8,0c-1.2,0-1.5,0.4-1.5,1.5c0,19.5,0,39,0,58.6
		c0,1.1,0.3,1.5,1.5,1.5c5.5,0,11,0,16.4,0c1.2,0,1.5-0.4,1.5-1.5c0-9.8-0.1-19.5,0-29.3c0-2.1,0.1-4.2,0.5-6.2
		c0.7-4.1,2.6-7.5,7-8.6c1.4-0.3,2.8-0.4,4.3-0.4c4.5,0.1,7.4,2.2,8.4,6.7c0.5,2.4,0.8,5,0.8,7.5c0.1,10.1,0,20.2,0,30.2
		c0,1.6,0,1.6,1.6,1.6c5.4,0,10.8,0,16.2,0c1.2,0,1.5-0.4,1.5-1.6c0-11.7,0.1-23.4-0.1-35c-0.1-3.9-0.6-7.8-1.5-11.6
		c-1.6-6.8-5.5-11.8-12.5-13.7c-2.4-0.7-4.9-0.9-7.4-1.1c-5.5-0.6-10.6,0.9-14.8,4.4C132.7,113.1,131.3,114.9,129.7,116.5z
		 M80.1,139.5c0,9.8,0,19.5,0,29.3c0,1.2,0.4,1.5,1.5,1.5c5.5,0,11,0,16.4,0c1.1,0,1.5-0.3,1.5-1.4c0-19.6,0-39.2,0-58.8
		c0-1.2-0.4-1.4-1.5-1.4c-5.4,0-10.8,0-16.2,0c-1.7,0-1.7,0-1.7,1.7C80.1,120,80.1,129.8,80.1,139.5z M89.7,100.4
		c6.2,0,11.2-4.9,11.2-11c0-6.2-4.9-11.3-11.1-11.3c-6.2,0-11.2,4.9-11.2,11.1C78.7,95.5,83.6,100.4,89.7,100.4z"/>
	<path class="st2" d="M129.7,116.5c1.6-1.6,3-3.5,4.8-4.9c4.3-3.5,9.3-5,14.8-4.4c2.5,0.3,5,0.4,7.4,1.1c7,1.9,10.9,6.9,12.5,13.7
		c0.9,3.8,1.4,7.7,1.5,11.6c0.2,11.7,0,23.4,0.1,35c0,1.2-0.3,1.6-1.5,1.6c-5.4-0.1-10.8,0-16.2,0c-1.6,0-1.6,0-1.6-1.6
		c0-10.1,0-20.2,0-30.2c0-2.5-0.2-5-0.8-7.5c-1-4.5-3.9-6.6-8.4-6.7c-1.4,0-2.9,0.1-4.3,0.4c-4.4,1.1-6.3,4.5-7,8.6
		c-0.4,2-0.5,4.1-0.5,6.2c0,9.8,0,19.5,0,29.3c0,1.1-0.3,1.5-1.5,1.5c-5.5-0.1-11,0-16.4,0c-1.2,0-1.5-0.4-1.5-1.5
		c0-19.5,0-39,0-58.6c0-1.1,0.3-1.5,1.5-1.5c5.3,0.1,10.6,0.1,15.8,0c1.1,0,1.4,0.3,1.3,1.4C129.7,112.2,129.7,114.5,129.7,116.5z"
		/>
	<path class="st2" d="M80.1,139.5c0-9.7,0-19.4,0-29.1c0-1.7,0-1.7,1.7-1.7c5.4,0,10.8,0,16.2,0c1,0,1.5,0.2,1.5,1.4
		c0,19.6,0,39.2,0,58.8c0,1.1-0.4,1.4-1.5,1.4c-5.5,0-11,0-16.4,0c-1.1,0-1.5-0.3-1.5-1.5C80.2,159,80.1,149.2,80.1,139.5z"/>
	<path class="st2" d="M89.7,100.4c-6.2,0-11.1-4.9-11-11.1c0-6.2,4.9-11.1,11.2-11.1c6.1,0,11.1,5,11.1,11.3
		C100.9,95.6,96,100.5,89.7,100.4z"/>
	<rect x="0.5" y="-0.2" class="st3" width="250" height="250"/>
</g>
<text transform="matrix(1 0 0 1 2130.293 125.0137)" class="st2" style="font-family:'Roboto-Black'; font-size:24px;">3D</text>
</svg>
