<?xml version="1.0" encoding="utf-8"?>
<!-- Generator: Adobe Illustrator 23.0.1, SVG Export Plug-In . SVG Version: 6.00 Build 0)  -->
<svg version="1.1" id="Layer_1" xmlns="http://www.w3.org/2000/svg" xmlns:xlink="http://www.w3.org/1999/xlink" x="0px" y="0px"
	 viewBox="0 0 250 250" style="enable-background:new 0 0 250 250;" xml:space="preserve">
<style type="text/css">
	.st0{display:none;}
	.st1{fill:none;stroke:#000000;stroke-miterlimit:10;}
	.st2{fill:#282828;}
	.st3{fill:#FFFFFF;}
</style>
<g class="st0">
	
		<image style="display:inline;overflow:visible;" width="215" height="269" xlink:href="7B727839.png"  transform="matrix(1.3981 0 0 1.4005 -304.5201 -260)">
	</image>
</g>
<g>
	<rect x="-0.3" y="0.4" class="st1" width="250" height="250"/>
	<g>
		<g>
			<path id="XMLID_182_" class="st2" d="M196.7,89c-1.7-6.5-6.8-11.6-13.3-13.4c-11.7-3.2-58.7-3.2-58.7-3.2s-47,0-58.7,3.2
				c-6.5,1.7-11.6,6.9-13.3,13.4c-3.1,11.8-3.1,36.4-3.1,36.4s0,24.6,3.1,36.4c1.7,6.5,6.8,11.6,13.3,13.4
				c11.7,3.2,58.7,3.2,58.7,3.2s47,0,58.7-3.2c6.5-1.7,11.6-6.9,13.3-13.4c3.1-11.8,3.1-36.4,3.1-36.4S199.8,100.8,196.7,89z"/>
		</g>
		<polygon id="XMLID_1355_" class="st3" points="109.3,147.8 148.6,125.4 109.3,103.1 		"/>
	</g>
</g>
<text transform="matrix(1 0 0 1 1829.293 126.0137)" class="st3" style="font-family:'Roboto-Black'; font-size:24px;">3D</text>
</svg>
