<?xml version="1.0" encoding="utf-8"?>
<!-- Generator: Adobe Illustrator 23.0.1, SVG Export Plug-In . SVG Version: 6.00 Build 0)  -->
<svg version="1.1" id="Layer_1" xmlns="http://www.w3.org/2000/svg" xmlns:xlink="http://www.w3.org/1999/xlink" x="0px" y="0px"
	 viewBox="0 0 250 250" style="enable-background:new 0 0 250 250;" xml:space="preserve">
<style type="text/css">
	.st0{display:none;}
	.st1{fill:none;stroke:#000000;stroke-miterlimit:10;}
	.st2{fill:#333333;}
</style>
<g class="st0">
	
		<image style="display:inline;overflow:visible;" width="215" height="269" xlink:href="AB494960.png"  transform="matrix(1.3981 0 0 1.4005 -603.5201 -261)">
	</image>
</g>
<g>
	<rect x="0.5" y="-0.2" class="st1" width="250" height="250"/>
	<g>
		<path class="st2" d="M127,66.5c17.1,0,19.1,0.1,25.9,0.4c6.2,0.3,9.6,1.3,11.9,2.2c3,1.2,5.1,2.5,7.4,4.8c2.2,2.2,3.6,4.4,4.8,7.4
			c0.9,2.3,1.9,5.6,2.2,11.9c0.3,6.7,0.4,8.8,0.4,25.9s-0.1,19.1-0.4,25.9c-0.3,6.2-1.3,9.6-2.2,11.9c-1.2,3-2.5,5.1-4.8,7.4
			c-2.2,2.2-4.4,3.6-7.4,4.8c-2.3,0.9-5.6,1.9-11.9,2.2c-6.7,0.3-8.8,0.4-25.9,0.4s-19.1-0.1-25.9-0.4c-6.2-0.3-9.6-1.3-11.9-2.2
			c-3-1.2-5.1-2.5-7.4-4.8c-2.2-2.2-3.6-4.4-4.8-7.4c-0.9-2.3-1.9-5.6-2.2-11.9c-0.3-6.7-0.4-8.8-0.4-25.9s0.1-19.1,0.4-25.9
			c0.3-6.2,1.3-9.6,2.2-11.9c1.2-3,2.5-5.1,4.8-7.4c2.2-2.2,4.4-3.6,7.4-4.8c2.3-0.9,5.6-1.9,11.9-2.2
			C107.9,66.6,109.9,66.5,127,66.5 M127,55c-17.4,0-19.6,0.1-26.4,0.4c-6.8,0.3-11.5,1.4-15.5,3c-4.2,1.6-7.8,3.8-11.3,7.4
			c-3.6,3.6-5.7,7.1-7.4,11.3c-1.6,4.1-2.7,8.7-3,15.5c-0.3,6.8-0.4,9-0.4,26.4c0,17.4,0.1,19.6,0.4,26.4c0.3,6.8,1.4,11.5,3,15.5
			c1.6,4.2,3.8,7.8,7.4,11.3c3.6,3.6,7.1,5.7,11.3,7.4c4.1,1.6,8.7,2.7,15.5,3c6.8,0.3,9,0.4,26.4,0.4s19.6-0.1,26.4-0.4
			c6.8-0.3,11.5-1.4,15.5-3c4.2-1.6,7.8-3.8,11.3-7.4c3.6-3.6,5.7-7.1,7.4-11.3c1.6-4.1,2.7-8.7,3-15.5c0.3-6.8,0.4-9,0.4-26.4
			s-0.1-19.6-0.4-26.4c-0.3-6.8-1.4-11.5-3-15.5c-1.6-4.2-3.8-7.8-7.4-11.3c-3.6-3.6-7.1-5.7-11.3-7.4c-4.1-1.6-8.7-2.7-15.5-3
			C146.6,55.1,144.4,55,127,55L127,55z"/>
		<path class="st2" d="M127.6,85c-18.5,0-33.4,15-33.4,33.4s15,33.4,33.4,33.4s33.4-15,33.4-33.4S146,85,127.6,85z M127.6,140.1
			c-12,0-21.7-9.7-21.7-21.7c0-12,9.7-21.7,21.7-21.7c12,0,21.7,9.7,21.7,21.7C149.3,130.4,139.6,140.1,127.6,140.1z"/>
		<circle class="st2" cx="161.2" cy="84.8" r="7.7"/>
	</g>
</g>
<text transform="matrix(1 0 0 1 1530.293 125.0137)" style="fill:#FFFFFF; font-family:'Roboto-Black'; font-size:24px;">3D</text>
</svg>
